<svg class="diagram-root" style="background: #f5f6f6" xmlns="http://www.w3.org/2000/svg" xmlns:xlink="http://www.w3.org/1999/xlink"><style>.diagram-root { font-family: "Helvetica Neue", sans-serif; font-size: 12px; } .t { overflow: visible; } .t-bg { y: 40; fill: #fff;   } .th { fill: #005aa0;   } .tht { fill: #fff; font-size: 14px;  } .tf { fill: #323c46; overflow: visible; } .tf.pk { fill: #005aa0; font-weight: bold; } .tf.fk { font-weight: bold; } .ty { fill: #adb1b5; font-weight: normal; text-anchor: end; } .r { fill: transparent; stroke: #c3c3c3; stroke-width: 1; } .l { stroke: 1; } .i { fill: #c2c7ce; stroke: #c2c7ce; } .i.ix { fill: #afb3b6; stroke: #000; } .fa { fill: transparent; overflow: visible; } .fa .bg.hover { fill: #f7f7f7; } .c { cy: 12; r: 4; stroke: #d2d2dc; fill: #d2d2dc; } .hr { fill: transparent; stroke: #323c46; stroke-opacity: 0.035; stroke-width: 13; } .dc { stroke: #fa5a3c; fill: #fa5a3c; } .x { stroke: white; stroke-width: 1; } .hl .th { fill: #1b9bff; } .hl .tht {  } .fhl .bg { fill: #e7f4ff; } .fhls .bg {  } .r.hl { stroke: #1b9bff; } .dim { opacity: 0.25; }</style><g class="drawing-wrapper" transform="translate(-117, 23) scale(1,1)"><g class="rs"><path d="M 144 218 m -1, 0 a 1,1 0 1,0 2,0 a 1,1 0 1,0 -2,0 M 144 218 m -0.5, 0 a 0.5,0.5 0 1,0 1,0 a 0.5,0.5 0 1,0 -1,0  M144 218 L144 218 132 218 M138 224 L138 224 138 212 M132 218 C 84.66549297229815 218, 84.06549297229816 76, 133 76 M 145 76 m -1, 0 a 1,1 0 1,0 2,0 a 1,1 0 1,0 -2,0 M 145 76 m -0.5, 0 a 0.5,0.5 0 1,0 1,0 a 0.5,0.5 0 1,0 -1,0  M145 76 L145 76 133 76 M139 82 L139 82 139 70" id="h3651122199" class="r"></path><path d="M 266.04 218 m -1, 0 a 1,1 0 1,0 2,0 a 1,1 0 1,0 -2,0 M 266.04 218 m -0.5, 0 a 0.5,0.5 0 1,0 1,0 a 0.5,0.5 0 1,0 -1,0  M266.04 218 L266.04 218 278.04 218 M272.04 224 L272.04 224 272.04 212 M278.04 218 C 328.04 218, 331.03400000000005 405, 273.05 405 M 261.05 405 m -1, 0 a 1,1 0 1,0 2,0 a 1,1 0 1,0 -2,0 M 261.05 405 m -0.5, 0 a 0.5,0.5 0 1,0 1,0 a 0.5,0.5 0 1,0 -1,0  M261.05 405 L261.05 405 273.05 405 M267.05 411 L267.05 411 267.05 399" id="h3228762923" class="r"></path><path d="M 266.04 218 m -1, 0 a 1,1 0 1,0 2,0 a 1,1 0 1,0 -2,0 M 266.04 218 m -0.5, 0 a 0.5,0.5 0 1,0 1,0 a 0.5,0.5 0 1,0 -1,0  M266.04 218 L266.04 218 278.04 218 M272.04 224 L272.04 224 272.04 212 M278.04 218 Q 320.53 218, 363.02 141 T 448 64 M 460 64 m -1, 0 a 1,1 0 1,0 2,0 a 1,1 0 1,0 -2,0 M 460 64 m -0.5, 0 a 0.5,0.5 0 1,0 1,0 a 0.5,0.5 0 1,0 -1,0  M460 64 L460 64 448 64 M454 70 L454 70 454 58" id="h2227984500" class="r"></path><path d="M 139 405 m -1, 0 a 1,1 0 1,0 2,0 a 1,1 0 1,0 -2,0 M 139 405 m -0.5, 0 a 0.5,0.5 0 1,0 1,0 a 0.5,0.5 0 1,0 -1,0  M139 405 L139 405 127 405 M133 411 L133 411 133 399 M127 405 C 77 405, 73.4 76, 133 76 M 145 76 m -1, 0 a 1,1 0 1,0 2,0 a 1,1 0 1,0 -2,0 M 145 76 m -0.5, 0 a 0.5,0.5 0 1,0 1,0 a 0.5,0.5 0 1,0 -1,0  M145 76 L145 76 133 76 M139 82 L139 82 139 70" id="h1369189574" class="r"></path><path d="M 261.05 430 m -1, 0 a 1,1 0 1,0 2,0 a 1,1 0 1,0 -2,0 M 261.05 430 m -0.5, 0 a 0.5,0.5 0 1,0 1,0 a 0.5,0.5 0 1,0 -1,0  M261.05 430 L261.05 430 273.05 430 M 261.05 436 m -1, 0 a 1,1 0 1,0 2,0 a 1,1 0 1,0 -2,0 M 261.05 436 m -0.5, 0 a 0.5,0.5 0 1,0 1,0 a 0.5,0.5 0 1,0 -1,0  M261.05 436 L261.05 436 268.05 430 261.05 424 M 261.05 424 m -1, 0 a 1,1 0 1,0 2,0 a 1,1 0 1,0 -2,0 M 261.05 424 m -0.5, 0 a 0.5,0.5 0 1,0 1,0 a 0.5,0.5 0 1,0 -1,0  M273.05 430 C 331.03400000000005 430, 328.04 193, 278.04 193 M 266.04 193 m -1, 0 a 1,1 0 1,0 2,0 a 1,1 0 1,0 -2,0 M 266.04 193 m -0.5, 0 a 0.5,0.5 0 1,0 1,0 a 0.5,0.5 0 1,0 -1,0  M266.04 193 L266.04 193 278.04 193 M272.04 199 L272.04 199 272.04 187" id="h1990908834" class="r"></path><path d="M 261.05 430 m -1, 0 a 1,1 0 1,0 2,0 a 1,1 0 1,0 -2,0 M 261.05 430 m -0.5, 0 a 0.5,0.5 0 1,0 1,0 a 0.5,0.5 0 1,0 -1,0  M261.05 430 L261.05 430 273.05 430 M267.05 436 L267.05 436 267.05 424 M273.05 430 Q 320.04 430, 367.03 411.5 T 461 393 M 473 393 m -1, 0 a 1,1 0 1,0 2,0 a 1,1 0 1,0 -2,0 M 473 393 m -0.5, 0 a 0.5,0.5 0 1,0 1,0 a 0.5,0.5 0 1,0 -1,0  M473 393 L473 393 461 393 M467 399 L467 399 467 387" id="h451625757" class="r"></path><path d="M 261.05 430 m -1, 0 a 1,1 0 1,0 2,0 a 1,1 0 1,0 -2,0 M 261.05 430 m -0.5, 0 a 0.5,0.5 0 1,0 1,0 a 0.5,0.5 0 1,0 -1,0  M261.05 430 L261.05 430 273.05 430 M267.05 436 L267.05 436 267.05 424 M273.05 430 Q 316.79 430, 360.53 247 T 448 64 M 460 64 m -1, 0 a 1,1 0 1,0 2,0 a 1,1 0 1,0 -2,0 M 460 64 m -0.5, 0 a 0.5,0.5 0 1,0 1,0 a 0.5,0.5 0 1,0 -1,0  M460 64 L460 64 448 64 M454 70 L454 70 454 58" id="h2286254435" class="r"></path><path d="M 608.96 89 m -1, 0 a 1,1 0 1,0 2,0 a 1,1 0 1,0 -2,0 M 608.96 89 m -0.5, 0 a 0.5,0.5 0 1,0 1,0 a 0.5,0.5 0 1,0 -1,0  M608.96 89 L608.96 89 620.96 89 M614.96 95 L614.96 95 614.96 83 M620.96 89 Q 648.97 89, 676.98 91 T 733 93 M 745 93 m -1, 0 a 1,1 0 1,0 2,0 a 1,1 0 1,0 -2,0 M 745 93 m -0.5, 0 a 0.5,0.5 0 1,0 1,0 a 0.5,0.5 0 1,0 -1,0  M745 93 L745 93 733 93 M739 99 L739 99 739 87" id="h1537058300" class="r"></path><path d="M 473 393 m -1, 0 a 1,1 0 1,0 2,0 a 1,1 0 1,0 -2,0 M 473 393 m -0.5, 0 a 0.5,0.5 0 1,0 1,0 a 0.5,0.5 0 1,0 -1,0  M473 393 L473 393 461 393 M467 399 L467 399 467 387 M461 393 C 390.2 393, 398 64, 448 64 M 460 64 m -1, 0 a 1,1 0 1,0 2,0 a 1,1 0 1,0 -2,0 M 460 64 m -0.5, 0 a 0.5,0.5 0 1,0 1,0 a 0.5,0.5 0 1,0 -1,0  M460 64 L460 64 448 64 M454 70 L454 70 454 58" id="h3177548053" class="r"></path></g><g class="hrs"></g><g class="ts"><svg width="135.39" height="100" x="145" y="19" id="h1357546326" class="t"><rect height="40" width="135.39" class="th"></rect><text x="13" y="25" class="tht">dept</text><rect height="60" width="135.39" class="t-bg"></rect><text x="13" y="61" class="tf pk">dept_no<tspan x="122.38999999999999" class="ty">int</tspan></text><path d="M7,14A2,2 0 0,1 5,12A2,2 0 0,1 7,10A2,2 0 0,1 9,12A2,2 0 0,1 7,14M12.65,10C11.83,7.67 9.61,6 7, 6A6, 6 0 0, 0 1, 12A6, 6 0 0, 0 7, 18C9.61, 18 11.83, 16.33 12.65, 14H17V18H21V14H23V10H12.65Z" class="i pk" transform="translate(89.71617187499999, 48) scale(0.65)"></path><text x="13" y="86" class="tf">dept_name<tspan x="122.38999999999999" class="ty">string</tspan></text></svg><svg width="122.04" height="100" x="144" y="136" id="h1090417462" class="t"><rect height="40" width="122.04" class="th"></rect><text x="13" y="25" class="tht">dept_emp</text><rect height="60" width="122.04" class="t-bg"></rect><text x="13" y="61" class="tf pk">emp_no<tspan x="109.04" class="ty">int</tspan></text><path d="M7,14A2,2 0 0,1 5,12A2,2 0 0,1 7,10A2,2 0 0,1 9,12A2,2 0 0,1 7,14M12.65,10C11.83,7.67 9.61,6 7, 6A6, 6 0 0, 0 1, 12A6, 6 0 0, 0 7, 18C9.61, 18 11.83, 16.33 12.65, 14H17V18H21V14H23V10H12.65Z" class="i pk" transform="translate(76.366171875, 48) scale(0.65)"></path><text x="13" y="86" class="tf fk">dept_no<tspan x="109.04" class="ty">int</tspan></text></svg><svg width="122.05" height="100" x="139" y="348" id="h1676682957" class="t"><rect height="40" width="122.05" class="th"></rect><text x="13" y="25" class="tht">dept_manager</text><rect height="60" width="122.05" class="t-bg"></rect><text x="13" y="61" class="tf pk">dept_no<tspan x="109.05" class="ty">int</tspan></text><path d="M7,14A2,2 0 0,1 5,12A2,2 0 0,1 7,10A2,2 0 0,1 9,12A2,2 0 0,1 7,14M12.65,10C11.83,7.67 9.61,6 7, 6A6, 6 0 0, 0 1, 12A6, 6 0 0, 0 7, 18C9.61, 18 11.83, 16.33 12.65, 14H17V18H21V14H23V10H12.65Z" class="i pk" transform="translate(76.376171875, 48) scale(0.65)"></path><text x="13" y="86" class="tf fk">emp_no<tspan x="109.05" class="ty">int</tspan></text></svg><svg width="148.96" height="225" x="460" y="7" id="h1639608377" class="t"><rect height="40" width="148.96" class="th"></rect><text x="13" y="25" class="tht">employees</text><rect height="185" width="148.96" class="t-bg"></rect><text x="13" y="61" class="tf pk">emp_no<tspan x="135.96" class="ty">int</tspan></text><path d="M7,14A2,2 0 0,1 5,12A2,2 0 0,1 7,10A2,2 0 0,1 9,12A2,2 0 0,1 7,14M12.65,10C11.83,7.67 9.61,6 7, 6A6, 6 0 0, 0 1, 12A6, 6 0 0, 0 7, 18C9.61, 18 11.83, 16.33 12.65, 14H17V18H21V14H23V10H12.65Z" class="i pk" transform="translate(103.28617187500001, 48) scale(0.65)"></path><text x="13" y="86" class="tf fk">emp_title_id<tspan x="135.96" class="ty">int</tspan></text><text x="13" y="111" class="tf">birth_date<tspan x="135.96" class="ty">dateTime</tspan></text><text x="13" y="136" class="tf">first_name<tspan x="135.96" class="ty">string</tspan></text><text x="13" y="161" class="tf">last_name<tspan x="135.96" class="ty">string</tspan></text><text x="13" y="186" class="tf">sex<tspan x="135.96" class="ty">string</tspan></text><text x="13" y="211" class="tf">hire_date<tspan x="135.96" class="ty">dateTime</tspan></text></svg><svg width="122.04" height="100" x="473" y="336" id="h2472833127" class="t"><rect height="40" width="122.04" class="th"></rect><text x="13" y="25" class="tht">salaries</text><rect height="60" width="122.04" class="t-bg"></rect><text x="13" y="61" class="tf pk">emp_no<tspan x="109.04" class="ty">int</tspan></text><path d="M7,14A2,2 0 0,1 5,12A2,2 0 0,1 7,10A2,2 0 0,1 9,12A2,2 0 0,1 7,14M12.65,10C11.83,7.67 9.61,6 7, 6A6, 6 0 0, 0 1, 12A6, 6 0 0, 0 7, 18C9.61, 18 11.83, 16.33 12.65, 14H17V18H21V14H23V10H12.65Z" class="i pk" transform="translate(76.366171875, 48) scale(0.65)"></path><text x="13" y="86" class="tf">salary<tspan x="109.04" class="ty">int</tspan></text></svg><svg width="113.36" height="100" x="745" y="36" id="h311790747" class="t"><rect height="40" width="113.36" class="th"></rect><text x="13" y="25" class="tht">titles</text><rect height="60" width="113.36" class="t-bg"></rect><text x="13" y="61" class="tf pk">title_id<tspan x="100.36" class="ty">int</tspan></text><path d="M7,14A2,2 0 0,1 5,12A2,2 0 0,1 7,10A2,2 0 0,1 9,12A2,2 0 0,1 7,14M12.65,10C11.83,7.67 9.61,6 7, 6A6, 6 0 0, 0 1, 12A6, 6 0 0, 0 7, 18C9.61, 18 11.83, 16.33 12.65, 14H17V18H21V14H23V10H12.65Z" class="i pk" transform="translate(67.686171875, 48) scale(0.65)"></path><text x="13" y="86" class="tf">title<tspan x="100.36" class="ty">string</tspan></text></svg></g></g><text class="qdbd-link" x="10" y="20">www.quickdatabasediagrams.com</text></svg>