<svg class="diagram-root" style="background: #f5f6f6" xmlns="http://www.w3.org/2000/svg" xmlns:xlink="http://www.w3.org/1999/xlink"><style>.diagram-root { font-family: "Helvetica Neue", sans-serif; font-size: 12px; } .t { overflow: visible; } .t-bg { y: 40; fill: #fff;   } .th { fill: #005aa0;   } .tht { fill: #fff; font-size: 14px;  } .tf { fill: #323c46; overflow: visible; } .tf.pk { fill: #005aa0; font-weight: bold; } .tf.fk { font-weight: bold; } .ty { fill: #adb1b5; font-weight: normal; text-anchor: end; } .r { fill: transparent; stroke: #c3c3c3; stroke-width: 1; } .l { stroke: 1; } .i { fill: #c2c7ce; stroke: #c2c7ce; } .i.ix { fill: #afb3b6; stroke: #000; } .fa { fill: transparent; overflow: visible; } .fa .bg.hover { fill: #f7f7f7; } .c { cy: 12; r: 4; stroke: #d2d2dc; fill: #d2d2dc; } .hr { fill: transparent; stroke: #323c46; stroke-opacity: 0.035; stroke-width: 13; } .dc { stroke: #fa5a3c; fill: #fa5a3c; } .x { stroke: white; stroke-width: 1; } .hl .th { fill: #1b9bff; } .hl .tht {  } .fhl .bg { fill: #e7f4ff; } .fhls .bg {  } .r.hl { stroke: #1b9bff; } .dim { opacity: 0.25; }</style><g class="drawing-wrapper" transform="translate(-106, 5) scale(1,1)"><g class="rs"><path d="M 278.72 107 m -1, 0 a 1,1 0 1,0 2,0 a 1,1 0 1,0 -2,0 M 278.72 107 m -0.5, 0 a 0.5,0.5 0 1,0 1,0 a 0.5,0.5 0 1,0 -1,0  M278.72 107 L278.72 107 290.72 107 M 278.72 113 m -1, 0 a 1,1 0 1,0 2,0 a 1,1 0 1,0 -2,0 M 278.72 113 m -0.5, 0 a 0.5,0.5 0 1,0 1,0 a 0.5,0.5 0 1,0 -1,0  M278.72 113 L278.72 113 285.72 107 278.72 101 M 278.72 101 m -1, 0 a 1,1 0 1,0 2,0 a 1,1 0 1,0 -2,0 M 278.72 101 m -0.5, 0 a 0.5,0.5 0 1,0 1,0 a 0.5,0.5 0 1,0 -1,0  M290.72 107 C 342.28799999999995 107, 341.7 387, 291.7 387 M 279.7 387 m -1, 0 a 1,1 0 1,0 2,0 a 1,1 0 1,0 -2,0 M 279.7 387 m -0.5, 0 a 0.5,0.5 0 1,0 1,0 a 0.5,0.5 0 1,0 -1,0  M279.7 387 L279.7 387 291.7 387 M285.7 393 L285.7 393 285.7 381" id="h1537058300" class="r"></path><path d="M 548.39 82 m -1, 0 a 1,1 0 1,0 2,0 a 1,1 0 1,0 -2,0 M 548.39 82 m -0.5, 0 a 0.5,0.5 0 1,0 1,0 a 0.5,0.5 0 1,0 -1,0  M548.39 82 L548.39 82 560.39 82 M 548.39 88 m -1, 0 a 1,1 0 1,0 2,0 a 1,1 0 1,0 -2,0 M 548.39 88 m -0.5, 0 a 0.5,0.5 0 1,0 1,0 a 0.5,0.5 0 1,0 -1,0  M548.39 88 L548.39 88 555.39 82 548.39 76 M 548.39 76 m -1, 0 a 1,1 0 1,0 2,0 a 1,1 0 1,0 -2,0 M 548.39 76 m -0.5, 0 a 0.5,0.5 0 1,0 1,0 a 0.5,0.5 0 1,0 -1,0  M560.39 82 Q 578.29 82, 596.19 95.5 T 632 109 M 644 109 m -1, 0 a 1,1 0 1,0 2,0 a 1,1 0 1,0 -2,0 M 644 109 m -0.5, 0 a 0.5,0.5 0 1,0 1,0 a 0.5,0.5 0 1,0 -1,0  M644 109 L644 109 632 109 M638 115 L638 115 638 103" id="h1607168654" class="r"></path><path d="M 399 107 m -1, 0 a 1,1 0 1,0 2,0 a 1,1 0 1,0 -2,0 M 399 107 m -0.5, 0 a 0.5,0.5 0 1,0 1,0 a 0.5,0.5 0 1,0 -1,0  M399 107 L399 107 387 107 M 399 113 m -1, 0 a 1,1 0 1,0 2,0 a 1,1 0 1,0 -2,0 M 399 113 m -0.5, 0 a 0.5,0.5 0 1,0 1,0 a 0.5,0.5 0 1,0 -1,0  M399 113 L399 113 392 107 399 101 M 399 101 m -1, 0 a 1,1 0 1,0 2,0 a 1,1 0 1,0 -2,0 M 399 101 m -0.5, 0 a 0.5,0.5 0 1,0 1,0 a 0.5,0.5 0 1,0 -1,0  M387 107 Q 362.93 107, 338.86 94.5 T 290.72 82 M 278.72 82 m -1, 0 a 1,1 0 1,0 2,0 a 1,1 0 1,0 -2,0 M 278.72 82 m -0.5, 0 a 0.5,0.5 0 1,0 1,0 a 0.5,0.5 0 1,0 -1,0  M278.72 82 L278.72 82 290.72 82 M284.72 88 L284.72 88 284.72 76" id="h1139284389" class="r"></path><path d="M 400 354 m -1, 0 a 1,1 0 1,0 2,0 a 1,1 0 1,0 -2,0 M 400 354 m -0.5, 0 a 0.5,0.5 0 1,0 1,0 a 0.5,0.5 0 1,0 -1,0  M400 354 L400 354 388 354 M 400 360 m -1, 0 a 1,1 0 1,0 2,0 a 1,1 0 1,0 -2,0 M 400 360 m -0.5, 0 a 0.5,0.5 0 1,0 1,0 a 0.5,0.5 0 1,0 -1,0  M400 360 L400 360 393 354 400 348 M 400 348 m -1, 0 a 1,1 0 1,0 2,0 a 1,1 0 1,0 -2,0 M 400 348 m -0.5, 0 a 0.5,0.5 0 1,0 1,0 a 0.5,0.5 0 1,0 -1,0  M388 354 Q 363.68 354, 339.36 218 T 290.72 82 M 278.72 82 m -1, 0 a 1,1 0 1,0 2,0 a 1,1 0 1,0 -2,0 M 278.72 82 m -0.5, 0 a 0.5,0.5 0 1,0 1,0 a 0.5,0.5 0 1,0 -1,0  M278.72 82 L278.72 82 290.72 82 M284.72 88 L284.72 88 284.72 76" id="h3177548053" class="r"></path><path d="M 548.39 205 m -1, 0 a 1,1 0 1,0 2,0 a 1,1 0 1,0 -2,0 M 548.39 205 m -0.5, 0 a 0.5,0.5 0 1,0 1,0 a 0.5,0.5 0 1,0 -1,0  M548.39 205 L548.39 205 560.39 205 M 548.39 211 m -1, 0 a 1,1 0 1,0 2,0 a 1,1 0 1,0 -2,0 M 548.39 211 m -0.5, 0 a 0.5,0.5 0 1,0 1,0 a 0.5,0.5 0 1,0 -1,0  M548.39 211 L548.39 211 555.39 205 548.39 199 M 548.39 199 m -1, 0 a 1,1 0 1,0 2,0 a 1,1 0 1,0 -2,0 M 548.39 199 m -0.5, 0 a 0.5,0.5 0 1,0 1,0 a 0.5,0.5 0 1,0 -1,0  M560.39 205 Q 578.29 205, 596.19 157 T 632 109 M 644 109 m -1, 0 a 1,1 0 1,0 2,0 a 1,1 0 1,0 -2,0 M 644 109 m -0.5, 0 a 0.5,0.5 0 1,0 1,0 a 0.5,0.5 0 1,0 -1,0  M644 109 L644 109 632 109 M638 115 L638 115 638 103" id="h1397587031" class="r"></path><path d="M 399 230 m -1, 0 a 1,1 0 1,0 2,0 a 1,1 0 1,0 -2,0 M 399 230 m -0.5, 0 a 0.5,0.5 0 1,0 1,0 a 0.5,0.5 0 1,0 -1,0  M399 230 L399 230 387 230 M 399 236 m -1, 0 a 1,1 0 1,0 2,0 a 1,1 0 1,0 -2,0 M 399 236 m -0.5, 0 a 0.5,0.5 0 1,0 1,0 a 0.5,0.5 0 1,0 -1,0  M399 236 L399 236 392 230 399 224 M 399 224 m -1, 0 a 1,1 0 1,0 2,0 a 1,1 0 1,0 -2,0 M 399 224 m -0.5, 0 a 0.5,0.5 0 1,0 1,0 a 0.5,0.5 0 1,0 -1,0  M387 230 Q 362.93 230, 338.86 156 T 290.72 82 M 278.72 82 m -1, 0 a 1,1 0 1,0 2,0 a 1,1 0 1,0 -2,0 M 278.72 82 m -0.5, 0 a 0.5,0.5 0 1,0 1,0 a 0.5,0.5 0 1,0 -1,0  M278.72 82 L278.72 82 290.72 82 M284.72 88 L284.72 88 284.72 76" id="h2286254435" class="r"></path></g><g class="hrs"></g><g class="ts"><svg width="150.72" height="225" x="128" y="25" id="h1639608377" class="t"><rect height="40" width="150.72" class="th"></rect><text x="13" y="25" class="tht">employees</text><rect height="185" width="150.72" class="t-bg"></rect><text x="13" y="61" class="tf pk">emp_no<tspan x="137.72" class="ty">int</tspan></text><path d="M7,14A2,2 0 0,1 5,12A2,2 0 0,1 7,10A2,2 0 0,1 9,12A2,2 0 0,1 7,14M12.65,10C11.83,7.67 9.61,6 7, 6A6, 6 0 0, 0 1, 12A6, 6 0 0, 0 7, 18C9.61, 18 11.83, 16.33 12.65, 14H17V18H21V14H23V10H12.65Z" class="i pk" transform="translate(105.046171875, 48) scale(0.65)"></path><text x="13" y="86" class="tf fk">emp_title_id<tspan x="137.72" class="ty">varchar</tspan></text><text x="13" y="111" class="tf">birth_date<tspan x="137.72" class="ty">date</tspan></text><text x="13" y="136" class="tf">first_name<tspan x="137.72" class="ty">varchar</tspan></text><text x="13" y="161" class="tf">last_name<tspan x="137.72" class="ty">varchar</tspan></text><text x="13" y="186" class="tf">sex<tspan x="137.72" class="ty">varchar</tspan></text><text x="13" y="211" class="tf">hire_date<tspan x="137.72" class="ty">date</tspan></text></svg><svg width="149.39" height="100" x="399" y="25" id="h1090417462" class="t"><rect height="40" width="149.39" class="th"></rect><text x="13" y="25" class="tht">dept_emp</text><rect height="60" width="149.39" class="t-bg"></rect><text x="13" y="61" class="tf pk">dept_no<tspan x="136.39" class="ty">varchar</tspan></text><path d="M7,14A2,2 0 0,1 5,12A2,2 0 0,1 7,10A2,2 0 0,1 9,12A2,2 0 0,1 7,14M12.65,10C11.83,7.67 9.61,6 7, 6A6, 6 0 0, 0 1, 12A6, 6 0 0, 0 7, 18C9.61, 18 11.83, 16.33 12.65, 14H17V18H21V14H23V10H12.65Z" class="i pk" transform="translate(76.37632812499999, 48) scale(0.65)"></path><text x="13" y="86" class="tf pk">emp_no<tspan x="136.39" class="ty">int</tspan></text><path d="M7,14A2,2 0 0,1 5,12A2,2 0 0,1 7,10A2,2 0 0,1 9,12A2,2 0 0,1 7,14M12.65,10C11.83,7.67 9.61,6 7, 6A6, 6 0 0, 0 1, 12A6, 6 0 0, 0 7, 18C9.61, 18 11.83, 16.33 12.65, 14H17V18H21V14H23V10H12.65Z" class="i pk" transform="translate(103.71617187499999, 73) scale(0.65)"></path></svg><svg width="122.04" height="100" x="400" y="272" id="h2472833127" class="t"><rect height="40" width="122.04" class="th"></rect><text x="13" y="25" class="tht">salaries</text><rect height="60" width="122.04" class="t-bg"></rect><text x="13" y="61" class="tf">salary<tspan x="109.04" class="ty">int</tspan></text><text x="13" y="86" class="tf pk">emp_no<tspan x="109.04" class="ty">int</tspan></text><path d="M7,14A2,2 0 0,1 5,12A2,2 0 0,1 7,10A2,2 0 0,1 9,12A2,2 0 0,1 7,14M12.65,10C11.83,7.67 9.61,6 7, 6A6, 6 0 0, 0 1, 12A6, 6 0 0, 0 7, 18C9.61, 18 11.83, 16.33 12.65, 14H17V18H21V14H23V10H12.65Z" class="i pk" transform="translate(76.366171875, 73) scale(0.65)"></path></svg><svg width="149.39" height="100" x="644" y="27" id="h475896179" class="t"><rect height="40" width="149.39" class="th"></rect><text x="13" y="25" class="tht">departments</text><rect height="60" width="149.39" class="t-bg"></rect><text x="13" y="61" class="tf">dept_name<tspan x="136.39" class="ty">varchar</tspan></text><text x="13" y="86" class="tf pk">dept_no<tspan x="136.39" class="ty">varchar</tspan></text><path d="M7,14A2,2 0 0,1 5,12A2,2 0 0,1 7,10A2,2 0 0,1 9,12A2,2 0 0,1 7,14M12.65,10C11.83,7.67 9.61,6 7, 6A6, 6 0 0, 0 1, 12A6, 6 0 0, 0 7, 18C9.61, 18 11.83, 16.33 12.65, 14H17V18H21V14H23V10H12.65Z" class="i pk" transform="translate(76.37632812499999, 73) scale(0.65)"></path></svg><svg width="149.39" height="100" x="399" y="148" id="h1676682957" class="t"><rect height="40" width="149.39" class="th"></rect><text x="13" y="25" class="tht">dept_manager</text><rect height="60" width="149.39" class="t-bg"></rect><text x="13" y="61" class="tf pk">dept_no<tspan x="136.39" class="ty">varchar</tspan></text><path d="M7,14A2,2 0 0,1 5,12A2,2 0 0,1 7,10A2,2 0 0,1 9,12A2,2 0 0,1 7,14M12.65,10C11.83,7.67 9.61,6 7, 6A6, 6 0 0, 0 1, 12A6, 6 0 0, 0 7, 18C9.61, 18 11.83, 16.33 12.65, 14H17V18H21V14H23V10H12.65Z" class="i pk" transform="translate(76.37632812499999, 48) scale(0.65)"></path><text x="13" y="86" class="tf pk">emp_no<tspan x="136.39" class="ty">int</tspan></text><path d="M7,14A2,2 0 0,1 5,12A2,2 0 0,1 7,10A2,2 0 0,1 9,12A2,2 0 0,1 7,14M12.65,10C11.83,7.67 9.61,6 7, 6A6, 6 0 0, 0 1, 12A6, 6 0 0, 0 7, 18C9.61, 18 11.83, 16.33 12.65, 14H17V18H21V14H23V10H12.65Z" class="i pk" transform="translate(103.71617187499999, 73) scale(0.65)"></path></svg><svg width="140.7" height="100" x="139" y="330" id="h311790747" class="t"><rect height="40" width="140.7" class="th"></rect><text x="13" y="25" class="tht">titles</text><rect height="60" width="140.7" class="t-bg"></rect><text x="13" y="61" class="tf pk">title_id<tspan x="127.69999999999999" class="ty">varchar</tspan></text><path d="M7,14A2,2 0 0,1 5,12A2,2 0 0,1 7,10A2,2 0 0,1 9,12A2,2 0 0,1 7,14M12.65,10C11.83,7.67 9.61,6 7, 6A6, 6 0 0, 0 1, 12A6, 6 0 0, 0 7, 18C9.61, 18 11.83, 16.33 12.65, 14H17V18H21V14H23V10H12.65Z" class="i pk" transform="translate(67.68632812499999, 48) scale(0.65)"></path><text x="13" y="86" class="tf">title<tspan x="127.69999999999999" class="ty">varchar</tspan></text></svg></g></g><text class="qdbd-link" x="10" y="20">www.quickdatabasediagrams.com</text></svg>